<?xml version="1.0" encoding="UTF-8"?> <svg xmlns="http://www.w3.org/2000/svg" width="410" height="282" viewBox="0 0 410 282" fill="none"><path d="M164.29 146.399L0 189.56C0 189.56 215.109 258.2 208.844 256.39C208.844 256.39 377.45 204.458 377.311 204.875C377.311 204.875 163.873 146.678 164.29 146.399Z" fill="#1F4D2C"></path><path d="M161.506 146.4C174.593 132.198 194.364 109.086 207.451 94.8849C208.147 94.0495 323.011 121.338 409.333 142.223C400.562 158.234 386.082 188.864 377.311 204.876" fill="#07B47E"></path><path d="M39.5411 128.439C36.7565 138.324 34.1111 149.462 39.1233 158.512C42.8825 165.334 50.4009 169.233 57.9193 171.321C65.4376 173.41 73.2345 174.245 80.6136 176.612C77.9683 188.725 74.9052 200.698 71.2853 212.533C82.1451 216.292 99.1311 220.747 109.991 224.507C118.345 205.015 126.002 189.978 128.091 168.815C130.179 184.826 118.345 220.33 121.129 228.684L153.152 239.822C158.721 228.684 169.859 161.854 167.075 150.715C164.012 138.324 143.267 130.806 134.774 126.907C126.559 123.287 118.345 119.667 109.712 117.3C92.5873 112.706 74.3483 112.845 57.3624 117.996" fill="#FFB801"></path><path d="M130.458 66.7604C120.99 53.9513 104.561 47.9645 89.6637 51.1668L87.2968 52.2806C61.6786 67.735 31.0482 75.2533 10.86 98.0869C6.68314 102.821 2.92394 108.39 1.53165 114.794C0.139362 121.199 1.67088 128.578 6.40467 132.755C12.3915 137.906 21.3022 138.463 28.6813 139.159C38.0096 139.995 47.338 140.552 56.6664 140.691C59.0333 140.691 61.5394 140.83 63.9063 140.273C64.4632 140.134 65.577 134.426 65.577 132.337C75.323 132.894 85.7652 132.198 95.5112 131.92C103.308 131.641 109.573 130.11 117.092 128.16C120.016 127.464 124.192 122.73 126.699 121.06C129.901 119.11 132.268 115.908 134.078 112.567C141.596 98.5046 139.925 79.4302 130.458 66.7604Z" fill="#2C64D8"></path><path d="M85.7653 131.223C94.2582 136.792 102.751 142.361 111.105 147.931C111.801 148.348 112.497 148.905 113.333 149.044C114.168 149.184 115.143 148.905 115.978 148.766C126.142 145.842 136.445 143.058 146.608 140.134C143.406 133.172 135.609 129.97 128.926 126.211C126.002 124.54 123.218 122.73 120.016 122.034C115.56 121.059 110.827 122.313 106.51 123.566C99.1313 125.654 91.7521 127.742 84.373 129.97" fill="#F5F5F5"></path><path d="M75.3229 114.655C76.2975 108.808 75.0445 102.821 73.3738 97.1123C72.8168 95.1631 71.8422 92.7962 69.7538 92.3786C67.9438 91.9609 66.2731 93.2139 65.4377 94.8847C64.6023 96.5554 64.6023 107.694 61.957 112.706L65.1592 128.439C70.7284 126.35 74.3483 120.642 75.3229 114.655Z" fill="#F3AA76"></path><path d="M111.383 53.1158C133.103 63.1403 147.443 81.797 163.455 99.3398C166.518 102.681 169.581 106.301 170.834 110.617C171.53 112.845 171.809 115.351 170.973 117.579C169.859 120.92 166.936 123.287 163.872 124.679C158.582 127.186 152.456 127.882 146.608 128.299C140.621 128.717 134.634 129.135 128.648 129.413C127.673 129.413 126.559 129.553 125.585 129.135C124.888 128.856 124.331 128.299 123.775 127.743C121.129 125.236 118.484 122.73 115.838 120.363C115.142 119.667 114.446 118.971 114.029 118.136C113.054 115.63 115.142 113.263 116.813 111.174C126.559 99.2006 127.394 80.6831 118.623 68.0133" fill="#2C64D8"></path><path d="M123.914 45.458C123.914 56.5964 115.839 65.6462 105.814 65.6462C95.7896 65.6462 87.7143 56.5964 87.7143 45.458C87.7143 43.0911 88.1319 40.7242 88.8281 38.3574C91.3342 30.9782 97.7388 25.2698 105.814 25.2698C115.839 25.2698 123.914 34.3197 123.914 45.458Z" fill="#F3AA76"></path><path d="M115.699 115.352C108.46 121.756 103.447 130.527 101.637 139.856C101.359 141.248 101.22 142.919 101.916 144.172C103.03 145.843 105.397 146.121 107.067 145.286C108.877 144.59 110.13 142.919 111.383 141.527C115.699 136.375 119.876 131.363 124.192 126.211C124.61 125.794 125.306 125.237 125.167 124.68C122.522 114.377 115.699 115.352 115.699 115.352Z" fill="#F3AA76"></path><path d="M259.384 14.1317C259.384 10.9295 259.801 3.96801 254.232 1.46189C250.891 0.0695975 233.765 0.765768 215.248 0.48731C194.364 0.208852 171.948 -0.904997 168.467 1.60113C162.202 6.19568 163.316 15.9417 163.037 27.08C163.037 27.08 158.721 32.51 153.013 36.5476C147.304 40.5853 136.027 45.8759 136.027 45.8759C145.773 48.939 161.506 44.4837 162.48 45.0406C164.708 46.2937 162.341 56.5966 167.771 57.7104C178.77 59.7988 193.25 59.6596 209.54 60.0773C230.424 60.495 252.283 60.7734 255.624 57.0143C260.08 52.002 259.244 23.4601 259.384 14.1317Z" fill="#F5F0E2"></path><path d="M190.048 33.6236C191.97 33.6236 193.528 32.0652 193.528 30.1429C193.528 28.2205 191.97 26.6622 190.048 26.6622C188.125 26.6622 186.567 28.2205 186.567 30.1429C186.567 32.0652 188.125 33.6236 190.048 33.6236Z" fill="#333333"></path><path d="M210.932 33.6236C212.854 33.6236 214.413 32.0652 214.413 30.1429C214.413 28.2205 212.854 26.6622 210.932 26.6622C209.009 26.6622 207.451 28.2205 207.451 30.1429C207.451 32.0652 209.009 33.6236 210.932 33.6236Z" fill="#333333"></path><path d="M231.816 33.6236C233.739 33.6236 235.297 32.0652 235.297 30.1429C235.297 28.2205 233.739 26.6622 231.816 26.6622C229.894 26.6622 228.335 28.2205 228.335 30.1429C228.335 32.0652 229.894 33.6236 231.816 33.6236Z" fill="#333333"></path><path d="M342.364 208.217C339.579 205.85 335.681 205.572 332.061 205.293C326.213 204.875 320.366 204.458 314.657 204.04C293.912 202.509 256.32 205.154 236.828 217.406C225.69 224.367 225.133 251.239 225.133 251.239C225.69 250.821 249.359 243.86 249.359 243.86C253.536 246.783 258.966 254.302 263.421 256.808C281.938 266.832 304.772 268.782 324.821 262.099C328.72 260.706 332.757 259.035 335.681 256.112C338.465 253.327 339.997 249.707 341.389 246.087C344.174 238.43 345.845 230.494 346.402 222.418C346.68 217.406 346.262 211.558 342.364 208.217Z" fill="#FD6C37"></path><path d="M312.43 118.275C311.734 115.351 310.341 112.566 308.531 110.2C305.329 106.023 301.013 102.96 296.14 101.289L288.9 101.567C283.192 106.997 277.205 112.706 269.826 115.351C268.99 115.63 268.016 116.047 267.598 116.743C267.041 117.857 267.598 119.249 268.573 119.946C269.547 120.642 270.94 120.781 272.053 120.92C271.636 122.73 271.357 124.679 271.357 126.489C277.066 128.299 279.989 121.895 282.635 123.009C285.28 124.123 279.85 133.869 273.863 134.008C274.142 139.855 283.331 150.019 288.065 153.361C292.799 156.702 293.077 153.082 298.507 151.411C300.735 150.715 302.962 149.601 305.19 149.044C306.025 148.766 307 148.627 307.696 148.07C308.253 147.513 308.531 146.678 308.671 145.842C309.924 140.969 311.038 136.096 311.873 131.084C312.847 126.907 313.404 122.452 312.43 118.275Z" fill="#AD563A"></path><path d="M277.205 226.317C297.95 233.557 321.48 232.721 341.668 224.089C343.199 223.393 344.87 222.697 345.845 221.166C346.959 219.495 346.959 217.267 346.819 215.179C345.984 198.75 343.06 182.46 338.048 166.866C335.82 159.487 332.757 151.969 326.492 147.374C321.201 143.615 314.379 142.64 307.835 142.64C301.013 142.64 293.912 143.754 287.926 147.096C279.293 151.829 273.585 161.436 273.446 171.321" fill="#FFF0BB"></path><path d="M208.843 255.833C196.87 263.491 182.251 265.858 170.138 273.098C168.745 273.933 167.214 275.047 167.214 276.718C167.075 278.945 169.72 280.338 171.808 280.755C175.846 281.451 180.023 280.894 184.2 280.059C194.364 277.971 204.249 274.072 213.299 268.782" fill="#AD563A"></path><path d="M288.622 160.462L286.812 158.93C284.027 158.234 281.104 159.209 278.876 161.019C276.648 162.828 278.319 156.424 277.066 158.93C270.94 171.182 266.206 194.294 260.637 206.686C257.852 212.951 253.954 218.799 249.22 223.811C236.829 237.038 219.286 244.138 205.224 255.555C203.971 256.53 202.718 257.643 202.161 259.175C201.604 260.846 202.022 262.516 202.439 264.187C202.996 266.276 203.553 268.364 205.084 269.896C207.591 272.402 211.767 271.845 215.248 271.009C221.931 269.339 228.475 266.972 234.88 264.466C240.449 262.377 246.018 260.289 251.169 257.504C273.585 245.53 287.647 221.305 292.52 196.243C294.748 184.27 295.027 171.043 288.622 160.462Z" fill="#FFF0BB"></path><path d="M323.011 122.312C322.454 121.477 321.758 120.781 321.34 119.945C320.783 118.831 320.783 117.578 320.644 116.325C320.366 111.87 319.252 107.415 316.885 103.655C314.518 99.8963 310.898 96.8333 306.582 95.7194C299.899 94.0487 291.128 93.4918 287.925 102.124C286.394 106.44 286.533 113.541 289.039 118.414C289.318 119.11 289.735 119.667 290.431 120.085C291.267 120.641 292.52 120.363 293.355 120.781C295.026 121.616 295.165 124.122 294.191 125.793C293.216 127.464 291.824 128.856 291.406 130.666C290.988 132.337 291.406 134.007 292.102 135.678C294.748 142.222 301.152 147.095 308.114 148.07C309.645 148.209 311.316 148.348 312.847 147.791C314.936 147.234 316.746 145.703 318.277 144.171C321.201 141.247 323.707 137.906 324.821 134.007C325.935 130.109 325.517 125.514 323.011 122.312Z" fill="#333333"></path><path d="M313.265 144.311C310.62 152.943 314.24 163.107 321.619 168.119C322.733 168.815 323.847 169.511 324.404 170.765C324.682 171.461 324.682 172.296 324.682 173.131C324.682 178.004 325.1 182.877 325.935 187.611C326.91 193.18 329.555 199.585 335.124 200.838C339.162 201.673 343.339 199.306 345.567 195.965C347.794 192.623 348.63 188.307 348.908 184.27C349.187 179.954 349.186 175.638 347.655 171.6C346.123 167.562 342.921 164.082 338.884 162.968C338.187 162.828 337.352 162.689 336.795 162.272C334.985 161.018 335.403 158.512 335.542 156.285C335.821 151.133 333.036 145.982 328.441 143.476C323.847 140.97 317.999 141.387 313.822 144.311" fill="#333333"></path><path d="M281.66 115.63C280.825 113.959 278.736 113.123 277.066 114.516C276.787 114.794 276.509 115.073 276.648 115.351C276.648 115.769 277.066 116.047 277.344 116.326C278.458 117.161 279.572 117.857 280.686 118.693C280.964 118.832 281.243 118.971 281.382 118.832C281.521 118.832 281.66 118.693 281.66 118.553C282.078 117.857 282.078 116.883 281.8 116.186C281.8 115.769 281.8 115.769 281.66 115.63Z" fill="white"></path><path d="M278.458 117.161C279.227 117.161 279.85 116.538 279.85 115.769C279.85 115 279.227 114.376 278.458 114.376C277.689 114.376 277.066 115 277.066 115.769C277.066 116.538 277.689 117.161 278.458 117.161Z" fill="#333333"></path><path d="M99.5487 42.1167C99.5487 41.9775 99.4095 41.8382 99.4095 41.699C99.1311 41.2813 98.7133 41.0028 98.2956 40.7244C96.3464 39.7498 93.7011 39.4713 91.8911 38.079C91.195 37.5221 90.9165 37.1044 90.7773 36.1298C90.7773 35.8513 91.0557 33.7629 91.3342 33.7629C89.385 33.9022 87.575 35.2944 86.6004 36.9652C85.6258 38.6359 85.0689 40.7244 84.512 42.5343C84.0943 44.0659 83.5374 45.5974 83.5374 47.2681C83.6766 50.6096 86.322 53.1158 88.6889 55.3434C88.9673 55.4827 89.1066 55.7611 89.385 55.7611C89.6635 55.7611 89.9419 55.6219 90.0812 55.4827C91.3342 54.6473 91.7519 53.1158 92.3088 51.7235C92.448 51.3058 92.5873 50.8881 92.5873 50.4704C92.448 49.9135 92.1696 49.3566 91.7519 48.9389C91.0558 48.1035 90.4988 46.9897 90.4988 46.0151C90.4988 45.4582 90.7773 44.762 91.3342 44.4835C91.6126 44.3443 92.0304 44.2051 92.4481 44.3444C95.2327 44.762 94.6757 48.2428 96.4857 49.7743C97.0426 50.192 97.878 50.4704 98.4349 50.0527C98.9918 49.635 99.131 49.0781 99.2702 48.382C99.5487 46.572 99.688 44.762 99.5487 42.9521C99.688 42.6736 99.5487 42.3951 99.5487 42.1167Z" fill="#F5F0E2"></path><path d="M123.357 43.6481C122.661 43.3697 121.686 43.5089 121.129 43.6481C120.155 44.0658 119.458 44.9012 119.319 46.015C119.319 46.2935 119.319 46.7112 119.598 46.9896C119.876 47.2681 120.294 47.2681 120.711 47.1289C121.408 46.9896 122.104 46.8504 122.8 46.8504C123.078 46.8504 123.496 46.8504 123.775 46.7111C124.053 46.5719 124.053 46.2935 124.192 46.015C124.192 45.7365 124.192 45.5973 124.192 45.3189C124.192 44.9012 124.192 44.6227 124.053 44.3443C123.914 44.0658 123.635 43.7874 123.357 43.6481Z" fill="white"></path><path d="M122.522 47.5464C123.29 47.5464 123.914 46.9231 123.914 46.1541C123.914 45.3852 123.29 44.7618 122.522 44.7618C121.753 44.7618 121.129 45.3852 121.129 46.1541C121.129 46.9231 121.753 47.5464 122.522 47.5464Z" fill="#333333"></path><path d="M112.08 45.0407C110.27 44.4838 108.181 45.4584 108.042 47.5468C108.042 47.8253 108.042 48.243 108.32 48.5215C108.599 48.7999 109.156 48.6606 109.434 48.6606C110.687 48.3822 112.08 48.1038 113.333 47.8253C113.611 47.8253 113.89 47.6861 114.029 47.4076C114.029 47.2684 114.029 47.1292 114.029 46.9899C113.75 46.1546 113.193 45.5976 112.358 45.1799C112.358 45.1799 112.219 45.18 112.08 45.0407Z" fill="white"></path><path d="M111.383 48.939C112.152 48.939 112.776 48.3156 112.776 47.5467C112.776 46.7778 112.152 46.1544 111.383 46.1544C110.614 46.1544 109.991 46.7778 109.991 47.5467C109.991 48.3156 110.614 48.939 111.383 48.939Z" fill="#333333"></path><path d="M114.446 46.4329L113.472 45.5975C113.75 46.1544 114.029 46.7113 113.889 47.2682C113.889 47.4074 113.889 47.5467 113.75 47.6859C113.611 47.8251 113.472 47.8251 113.333 47.8251C112.079 48.1036 110.826 48.2428 109.713 48.5213C109.434 48.5213 109.156 48.6605 108.877 48.7997C108.599 48.939 108.32 49.2174 108.32 49.4959C108.32 49.9136 108.599 50.3313 109.016 50.4705C109.852 51.0274 110.826 51.1666 111.801 51.3059C112.497 51.3059 113.332 51.3058 113.889 50.7489C114.307 50.4705 114.586 50.0528 114.725 49.6351C115.143 48.5213 115.282 47.129 114.446 46.4329Z" fill="#F3AA76"></path><path d="M119.041 45.0406C119.041 45.876 119.737 46.5722 120.433 46.8506C121.547 47.2683 122.8 47.1291 123.775 46.5721C123.775 47.4075 123.496 48.2429 123.078 49.0783C122.8 49.7744 122.243 50.4705 121.686 50.749C121.129 51.0275 120.433 51.1667 119.876 51.1667C119.18 51.1667 118.623 51.0275 118.066 50.6098C117.37 49.9137 117.231 48.7998 117.37 47.8252" fill="#F3AA76"></path><path d="M117.509 45.4581C117.927 46.015 118.205 46.572 118.623 47.1289C119.041 47.825 119.458 48.3819 119.737 49.0781C120.433 50.8881 120.433 52.8373 120.433 54.7865C120.433 55.0649 120.433 55.3434 120.155 55.4826C119.876 55.7611 119.319 55.6219 118.902 55.3434C117.788 54.6473 116.535 53.6726 116.117 52.4196" stroke="#333333" stroke-width="2" stroke-miterlimit="10" stroke-linecap="round"></path><path d="M114.307 56.318C112.497 55.6218 110.548 54.9257 109.016 53.6726C108.738 53.3942 108.32 53.1157 108.042 52.8373C107.624 52.698 107.206 52.5588 106.789 52.6981C106.371 52.9765 106.232 53.3942 106.093 53.8119C105.675 56.1788 107.206 58.6849 109.434 59.5203" stroke="#333333" stroke-width="2" stroke-miterlimit="10" stroke-linecap="round"></path><path d="M114.864 112.288C116.256 105.327 139.507 105.048 148.557 104.77" stroke="#333333" stroke-width="2" stroke-miterlimit="10" stroke-linecap="round"></path><path d="M61.6783 112.149C49.1477 109.782 36.6171 107.833 23.9473 106.301" stroke="#333333" stroke-width="2" stroke-miterlimit="10" stroke-linecap="round"></path><path d="M276.37 236.202C283.749 224.228 293.077 204.179 294.469 179.118" stroke="#333333" stroke-width="2" stroke-miterlimit="10" stroke-linecap="round"></path></svg> 